HIERARCHY
ROOT hip
{
	OFFSET 0.000000 0.000000 0.000000
	CHANNELS 6 Xposition Yposition Zposition Xrotation Zrotation Yrotation 
	JOINT abdomen
	{
		OFFSET 0.000000 3.422050 0.000000
		CHANNELS 3 Xrotation Zrotation Yrotation 
		JOINT chest
		{
			OFFSET 0.000000 8.486693 -0.684411
			CHANNELS 3 Xrotation Zrotation Yrotation 
			JOINT neck
			{
				OFFSET 0.000000 10.266162 -0.273764
				CHANNELS 3 Xrotation Zrotation Yrotation 
				JOINT head
				{
					OFFSET 0.000000 3.148285 0.000000
					CHANNELS 3 Xrotation Zrotation Yrotation 
					End Site
					{
						OFFSET 0.000000 3.148289 0.000000
					}
				}
			}
			JOINT lCollar
			{
				OFFSET 3.422053 6.707223 -0.821293
				CHANNELS 3 Yrotation Zrotation Xrotation 
				JOINT lShldr
				{
					OFFSET 3.285171 0.000000 0.000000
					CHANNELS 3 Zrotation Yrotation Xrotation 
					JOINT lForeArm
					{
						OFFSET 10.129278 0.000000 0.000000
						CHANNELS 3 Yrotation Zrotation Xrotation 
						JOINT lHand
						{
							OFFSET 8.486692 0.000000 0.000000
							CHANNELS 3 Zrotation Yrotation Xrotation 
							End Site
							{
								OFFSET 4.106464 0.000000 0.000000
							}
						}
					}
				}
			}
			JOINT rCollar
			{
				OFFSET -3.558935 6.707223 -0.821293
				CHANNELS 3 Yrotation Zrotation Xrotation 
				JOINT rShldr
				{
					OFFSET -3.148289 0.000000 0.000000
					CHANNELS 3 Zrotation Yrotation Xrotation 
					JOINT rForeArm
					{
						OFFSET -10.266159 0.000000 0.000000
						CHANNELS 3 Yrotation Zrotation Xrotation 
						JOINT rHand
						{
							OFFSET -8.349810 0.000000 0.000000
							CHANNELS 3 Zrotation Yrotation Xrotation 
							End Site
							{
								OFFSET -4.106464 0.000000 0.000000
							}
						}
					}
				}
			}
		}
	}
	JOINT lThigh
	{
		OFFSET 5.338403 -1.642589 1.368821
		CHANNELS 3 Xrotation Zrotation Yrotation 
		JOINT lShin
		{
			OFFSET -2.053232 -20.121670 0.000000
			CHANNELS 3 Xrotation Zrotation Yrotation 
			JOINT lFoot
			{
				OFFSET 0.000000 -19.300380 -1.231939
				CHANNELS 3 Xrotation Yrotation Zrotation 
				End Site
				{
					OFFSET 0.000000 -2.463878 4.653993
				}
			}
		}
	}
	JOINT rThigh
	{
		OFFSET -5.338403 -1.642589 1.368821
		CHANNELS 3 Xrotation Zrotation Yrotation 
		JOINT rShin
		{
			OFFSET 2.053232 -20.121670 0.000000
			CHANNELS 3 Xrotation Zrotation Yrotation 
			JOINT rFoot
			{
				OFFSET 0.000000 -19.300380 -1.231939
				CHANNELS 3 Xrotation Yrotation Zrotation 
				End Site
				{
					OFFSET 0.000000 -2.463878 4.653993
				}
			}
		}
	}
}
MOTION
Frames: 9
Frame Time: 0.033264
0.000000 7.522690 0.000000 -48.026028 0.432040 -1.982361 22.517189 -2.032295 -0.763018 12.230260 0.296502 -3.702331 2.697889 20.497721 -4.190275 -33.424656 -0.678089 -2.179115 8.003539 27.809980 8.495064 -51.030273 -57.209633 19.576170 -65.823441 9.627450 -20.025808 -0.868641 -19.354668 -57.609749 2.296414 -8.400965 7.312274 86.870682 -8.106818 6.747612 -10.870842 0.512747 -53.937031 -41.690521 6.279663 -15.839599 -81.963814 4.765877 -25.039749 92.701202 0.160814 -0.735796 25.967981 -11.253673 -27.558455 -81.485115 -3.959006 27.663862 88.367371 -0.381247 0.841343 31.234835 14.925586 24.355371 
0.000000 7.522690 0.000000 -48.026028 0.432040 -1.982361 22.517189 -2.032295 -0.763018 12.230260 0.296502 -3.702331 2.667264 20.626196 -4.223179 -33.424656 -0.678089 -2.179115 8.144333 27.967337 8.462772 -51.030270 -57.209625 19.576170 -65.981758 9.293596 -20.018175 -0.445993 -19.409212 -57.780117 2.296414 -8.400965 7.312274 86.870682 -8.106818 6.747612 -10.870842 0.512748 -53.937031 -41.690521 6.279662 -15.839599 -81.963814 4.765877 -25.039749 92.701195 0.160814 -0.735796 25.967981 -11.253673 -27.558455 -81.485115 -3.959006 27.663862 88.367371 -0.381247 0.841343 31.234835 14.925586 24.355371 
0.000000 7.522690 0.000000 -48.026028 0.432040 -1.982361 22.517189 -2.032295 -0.763018 12.230260 0.296502 -3.702331 2.636539 20.754644 -4.256181 -33.424656 -0.678089 -2.179115 8.285368 28.124546 8.430007 -51.030270 -57.209625 19.576170 -66.139648 8.960221 -20.011494 -0.023802 -19.462467 -57.950638 2.296414 -8.400965 7.312274 86.870682 -8.106818 6.747612 -10.870842 0.512748 -53.937031 -41.690521 6.279662 -15.839599 -81.963814 4.765877 -25.039749 92.701195 0.160814 -0.735796 25.967981 -11.253673 -27.558455 -81.485115 -3.959006 27.663862 88.367371 -0.381247 0.841343 31.234835 14.925586 24.355371 
0.000000 7.522690 0.000000 -48.026028 0.432040 -1.982361 22.517189 -2.032295 -0.763018 12.230260 0.296502 -3.702331 2.605711 20.883057 -4.289280 -33.424656 -0.678089 -2.179115 8.426648 28.281609 8.396768 -51.030270 -57.209625 19.576170 -66.297134 8.627342 -20.005758 0.397918 -19.514444 -58.121319 2.296414 -8.400965 7.312274 86.870682 -8.106818 6.747612 -10.870842 0.512748 -53.937031 -41.690521 6.279662 -15.839599 -81.963814 4.765877 -25.039749 92.701195 0.160814 -0.735796 25.967981 -11.253673 -27.558455 -81.485115 -3.959006 27.663862 88.367371 -0.381247 0.841343 31.234835 14.925586 24.355371 
0.000000 7.522690 0.000000 -48.026028 0.432040 -1.982361 22.517189 -2.032295 -0.763018 12.230260 0.296502 -3.702331 2.574784 21.011433 -4.322478 -33.424656 -0.678089 -2.179115 8.568180 28.438536 8.363057 -51.030270 -57.209625 19.576170 -66.454208 8.294955 -20.000959 0.819156 -19.565144 -58.292141 2.296414 -8.400965 7.312274 86.870682 -8.106818 6.747612 -10.870842 0.512748 -53.937031 -41.690521 6.279662 -15.839599 -81.963814 4.765877 -25.039749 92.701195 0.160814 -0.735796 25.967981 -11.253673 -27.558455 -81.485115 -3.959006 27.663862 88.367371 -0.381247 0.841343 31.234835 14.925586 24.355371 
0.000000 7.522690 0.000000 -48.026028 0.432040 -1.982361 22.517189 -2.032295 -0.763018 12.230260 0.296502 -3.702331 2.543754 21.139776 -4.355773 -33.424656 -0.678089 -2.179115 8.709963 28.595312 8.328870 -51.030270 -57.209625 19.576170 -66.610878 7.963069 -19.997089 1.239894 -19.614561 -58.463081 2.296414 -8.400965 7.312274 86.870682 -8.106818 6.747612 -10.870842 0.512748 -53.937031 -41.690521 6.279662 -15.839599 -81.963814 4.765877 -25.039749 92.701195 0.160814 -0.735796 25.967981 -11.253673 -27.558455 -81.485115 -3.959006 27.663862 88.367371 -0.381247 0.841343 31.234835 14.925586 24.355371 
0.000000 7.522690 0.000000 -48.026028 0.432040 -1.982361 22.517189 -2.032295 -0.763018 12.230260 0.296502 -3.702331 2.512621 21.268076 -4.389165 -33.424656 -0.678089 -2.179115 8.851996 28.751945 8.294205 -51.030270 -57.209625 19.576170 -66.767151 7.631702 -19.994144 1.660109 -19.662704 -58.634113 2.296414 -8.400965 7.312274 86.870682 -8.106818 6.747612 -10.870842 0.512748 -53.937031 -41.690521 6.279662 -15.839599 -81.963814 4.765877 -25.039749 92.701195 0.160814 -0.735796 25.967981 -11.253673 -27.558455 -81.485115 -3.959006 27.663862 88.367371 -0.381247 0.841343 31.234835 14.925586 24.355371 
0.000000 7.522690 0.000000 -48.026028 0.432040 -1.982361 22.517189 -2.032295 -0.763018 12.230260 0.296502 -3.702331 2.481385 21.396347 -4.422658 -33.424656 -0.678089 -2.179115 8.994288 28.908432 8.259061 -51.030270 -57.209625 19.576170 -66.923035 7.300850 -19.992111 2.079798 -19.709579 -58.805260 2.296414 -8.400965 7.312274 86.870682 -8.106818 6.747612 -10.870842 0.512748 -53.937031 -41.690521 6.279662 -15.839599 -81.963814 4.765877 -25.039749 92.701195 0.160814 -0.735796 25.967981 -11.253673 -27.558455 -81.485115 -3.959006 27.663862 88.367371 -0.381247 0.841343 31.234835 14.925586 24.355371 
0.000000 7.522690 0.000000 -48.026028 0.432040 -1.982361 22.517189 -2.032295 -0.763018 12.230260 0.296502 -3.702331 2.450046 21.524580 -4.456250 -33.424656 -0.678089 -2.179115 9.136836 29.064756 8.223434 -51.030270 -57.209625 19.576170 -67.078545 6.970524 -19.990990 2.498937 -19.755184 -58.976471 2.296414 -8.400965 7.312274 86.870682 -8.106818 6.747612 -10.870842 0.512748 -53.937031 -41.690521 6.279662 -15.839599 -81.963814 4.765877 -25.039749 92.701195 0.160814 -0.735796 25.967981 -11.253673 -27.558455 -81.485115 -3.959006 27.663862 88.367371 -0.381247 0.841343 31.234835 14.925586 24.355371 
